<svg xmlns="http://www.w3.org/2000/svg" version="1.1" xmlns:xlink="http://www.w3.org/1999/xlink" xmlns:svgjs="http://svgjs.com/svgjs" preserveAspectRatio="none" viewBox="0 0 1440 1024"><g mask="url(&quot;#SvgjsMask1052&quot;)" fill="none"><rect width="1440" height="1024" x="0" y="0" fill="#0e2a47"></rect><path d="M0,620.317C116.624,635.374,233.757,580.553,327.327,509.331C416.995,441.078,456.073,331.912,509.353,232.614C566.546,126.023,669.761,25.9,650.826,-93.575C631.894,-213.033,498.893,-272.435,415.437,-359.978C336.631,-442.643,279.096,-548.162,174.26,-593.476C62.907,-641.607,-74.117,-674.5,-181.455,-617.979C-288.106,-561.82,-303.462,-418.442,-360.15,-312.072C-403.243,-231.211,-449.921,-156.5,-474.443,-68.215C-502.144,31.511,-549.767,137.442,-511.748,233.708C-473.419,330.759,-360.429,368.388,-277.171,431.287C-186.096,500.091,-113.203,605.702,0,620.317" fill="#0b2037"></path><path d="M1440 1497.6100000000001C1527.969 1519.589 1628.38 1482.468 1695.368 1421.3600000000001 1759.6979999999999 1362.676 1769.617 1267.526 1785.974 1182.001 1799.2069999999999 1112.809 1778.774 1045.429 1780.7350000000001 975.01 1783.223 885.649 1852.8229999999999 784.298 1799.037 712.892 1746.238 642.796 1630.907 685.14 1545.92 663.27 1464.854 642.409 1389.333 555.875 1311.838 587.519 1232.5819999999999 619.8820000000001 1245.417 742.15 1190.964 808.2090000000001 1138.6309999999999 871.696 1037.967 886.456 1003.7429999999999 961.276 966.454 1042.797 948.1320000000001 1151.939 1000.437 1224.742 1053.875 1299.121 1177.484 1263.104 1255.295 1311.407 1331.107 1358.469 1353.429 1475.98 1440 1497.6100000000001" fill="#113457"></path></g><defs><mask id="SvgjsMask1052"><rect width="1440" height="1024" fill="#ffffff"></rect></mask></defs></svg>